<svg id="visual" viewBox="0 0 900 450" width="900" height="450" xmlns="http://www.w3.org/2000/svg" xmlns:xlink="http://www.w3.org/1999/xlink" version="1.1"><rect x="0" y="0" width="900" height="450" fill="#222831"></rect><defs><linearGradient id="grad1_0" x1="50%" y1="0%" x2="100%" y2="100%"><stop offset="10%" stop-color="#222831" stop-opacity="1"></stop><stop offset="90%" stop-color="#222831" stop-opacity="1"></stop></linearGradient></defs><defs><linearGradient id="grad2_0" x1="0%" y1="0%" x2="50%" y2="100%"><stop offset="10%" stop-color="#222831" stop-opacity="1"></stop><stop offset="90%" stop-color="#222831" stop-opacity="1"></stop></linearGradient></defs><g transform="translate(900, 0)"><path d="M0 337.5C-70.7 335.4 -141.4 333.3 -168.7 292.3C-196.1 251.2 -180 171.2 -200.9 116C-221.8 60.8 -279.7 30.4 -337.5 0L0 0Z" fill="#f96d00"></path></g><g transform="translate(0, 450)"><path d="M0 -337.5C30.1 -279.2 60.3 -220.9 115.5 -200.1C170.7 -179.2 251.1 -195.8 292.3 -168.8C333.5 -141.7 335.5 -70.8 337.5 0L0 0Z" fill="#ccc"></path></g></svg>