<svg xmlns="http://www.w3.org/2000/svg" xmlns:xlink="http://www.w3.org/1999/xlink" version="1.1" width="1000" height="1000" viewBox="0 0 1000 1000" xml:space="preserve">
<desc>Created with Fabric.js 3.5.0</desc>
<defs>
</defs>
<g transform="matrix(-1.8939 0 0 1.8939 499.9924 499.9905)" id="395631">
<path style="stroke: none; stroke-width: 1; stroke-dasharray: none; stroke-linecap: butt; stroke-dashoffset: 0; stroke-linejoin: miter; stroke-miterlimit: 4; is-custom-font: none; font-file-url: none; fill: rgb(242,242,242); fill-rule: nonzero; opacity: 1;" vector-effect="non-scaling-stroke" transform=" translate(-192, -272)" d="M 32 391.6 V 416 H 352 V 224 c 0 -106 -86 -192 -192 -192 H 12.9 C 5.8 32 0 37.8 0 44.9 c 0 2 0.5 4 1.4 5.8 L 16 80 L 9.4 86.6 c -6 6 -9.4 14.1 -9.4 22.6 V 242.3 c 0 13.1 8 24.9 20.1 29.7 l 46.5 18.6 c 8.5 3.4 18 3 26.2 -1.1 l 6.6 -3.3 c 8 -4 14 -11.2 16.5 -19.8 l 8.3 -28.9 c 2.5 -8.6 8.4 -15.8 16.5 -19.8 L 160 208 v 40.4 c 0 24.2 -13.7 46.4 -35.4 57.2 L 67.4 334.3 C 45.7 345.2 32 367.3 32 391.6 z M 72 148 c 0 11 -9 20 -20 20 s -20 -9 -20 -20 s 9 -20 20 -20 s 20 9 20 20 z M 352 448 H 32 c -17.7 0 -32 14.3 -32 32 s 14.3 32 32 32 H 352 c 17.7 0 32 -14.3 32 -32 s -14.3 -32 -32 -32 z" stroke-linecap="round"/>
</g>
</svg>